<svg width="120" height="100" viewBox="0 0 120 100" fill="none" xmlns="http://www.w3.org/2000/svg">
    <g clip-path="url(#clip0_6009_11379)">
        <path d="M11.8991 97C6.98336 96.9946 3 93.0189 3 88.1154C3 83.6172 6.35206 79.8997 10.701 79.3118C10.6582 78.8674 10.6364 78.417 10.6364 77.9615C10.6364 70.2508 16.9044 64 24.6364 64C29.2991 64 33.4295 66.2732 35.9738 69.7689C37.201 69.3212 38.5264 69.0769 39.9091 69.0769C44.9665 69.0769 49.2584 72.3455 50.7765 76.8799C55.4628 77.7904 59 81.9063 59 86.8462C59 92.454 54.4414 97 48.8182 97H11.8991Z" fill="url(#paint0_linear_6009_11379)"/>
        <path d="M74.1046 31C69.6277 30.9951 66 27.3808 66 22.9231C66 18.8338 69.0528 15.4543 73.0134 14.9198C72.9745 14.5159 72.9545 14.1064 72.9545 13.6923C72.9545 6.68254 78.6629 1 85.7045 1C89.951 1 93.7125 3.06653 96.0298 6.24446C97.1474 5.83748 98.3544 5.61538 99.6136 5.61538C104.219 5.61538 108.128 8.58683 109.511 12.709C113.779 13.5368 117 17.2785 117 21.7692C117 26.8672 112.848 31 107.727 31H74.1046Z" fill="url(#paint1_linear_6009_11379)"/>
        <path d="M29.5 12.4514C29.5 9.44068 31.6339 7 34.2662 7H86.6946C89.3269 7 91.4608 9.44068 91.4608 12.4514V86.954C91.4608 89.9647 89.3269 92.4054 86.6946 92.4054H34.2662C31.6339 92.4054 29.5 89.9647 29.5 86.954V12.4514Z" fill="url(#paint2_linear_6009_11379)"/>
        <path d="M39.0322 19.5594C39.0322 18.6345 39.7435 17.8848 40.621 17.8848H80.3394C81.2169 17.8848 81.9282 18.6345 81.9282 19.5594V43.004C81.9282 43.9289 81.2169 44.6786 80.3394 44.6786H40.621C39.7435 44.6786 39.0322 43.9289 39.0322 43.004V19.5594Z" fill="#C7CED9"/>
        <path d="M39.0322 56.8196C39.0322 55.6635 39.9214 54.7263 41.0181 54.7263H79.9422C81.039 54.7263 81.9282 55.6635 81.9282 56.8196C81.9282 57.9757 81.039 58.9128 79.9422 58.9128H41.0181C39.9214 58.9128 39.0322 57.9757 39.0322 56.8196Z" fill="#C7CED9"/>
        <path d="M39.0322 67.7046C39.0322 66.5485 39.9214 65.6113 41.0181 65.6113H79.9422C81.039 65.6113 81.9282 66.5485 81.9282 67.7046C81.9282 68.8607 81.039 69.7979 79.9422 69.7979H41.0181C39.9214 69.7979 39.0322 68.8607 39.0322 67.7046Z" fill="#C7CED9"/>
        <path d="M43.7984 78.5896C43.7984 77.4335 44.6876 76.4963 45.7844 76.4963H75.176C76.2728 76.4963 77.1619 77.4335 77.1619 78.5896C77.1619 79.7457 76.2728 80.6829 75.176 80.6829H45.7844C44.6876 80.6829 43.7984 79.7457 43.7984 78.5896Z" fill="#C7CED9"/>
        <path fill-rule="evenodd" clip-rule="evenodd" d="M88.4725 63.3411C95.656 57.1975 96.6165 46.2953 90.6178 38.9904C84.6191 31.6854 73.9328 30.744 66.7492 36.8876C59.5657 43.0312 58.6053 53.9334 64.604 61.2383C70.6027 68.5433 81.289 69.4847 88.4725 63.3411ZM85.5092 59.7336C91.0601 54.9863 91.9128 46.6965 87.4138 41.2177C82.9147 35.739 74.7676 35.1461 69.2167 39.8935C63.6658 44.6408 62.8131 52.9307 67.3122 58.4094C71.8112 63.8881 79.9583 64.481 85.5092 59.7336Z" fill="#5D6D7C"/>
        <path d="M87.0421 65.8892C86.4077 65.1166 86.4227 64.0375 87.0758 63.479L88.8494 61.9621C89.5025 61.4035 90.5462 61.5771 91.1807 62.3498L92.3295 63.7487C92.964 64.5214 92.9489 65.6005 92.2959 66.159L90.5222 67.6759C89.8692 68.2344 88.8254 68.0608 88.1909 67.2882L87.0421 65.8892Z" fill="#C8D3DB"/>
        <path d="M88.6536 69.6908C87.8602 68.7246 88.0111 67.2623 88.9907 66.4245L91.3556 64.402C92.3352 63.5642 93.7724 63.6683 94.5658 64.6344L108.453 81.545C109.246 82.5112 109.095 83.9735 108.116 84.8113L105.751 86.8339C104.771 87.6716 103.334 87.5675 102.54 86.6014L88.6536 69.6908Z" fill="#AEB8C2"/>
        <path fill-rule="evenodd" clip-rule="evenodd" d="M87.7321 62.4392C94.9156 56.2956 96.0419 45.5953 90.2476 38.5394C84.4534 31.4835 73.9329 30.7439 66.7494 36.8875C59.5659 43.0311 58.4396 53.7314 64.2338 60.7873C70.0281 67.8432 80.5486 68.5828 87.7321 62.4392ZM85.5094 59.7335C91.0603 54.9862 91.9129 46.6964 87.4139 41.2176C82.9149 35.7389 74.7678 35.146 69.2169 39.8934C63.666 44.6407 62.8133 52.9306 67.3123 58.4093C71.8114 63.888 79.9585 64.4809 85.5094 59.7335Z" fill="#AEB8C2"/>
        <path opacity="0.5" d="M87.4136 41.2187C91.9126 46.6974 91.0599 54.9872 85.509 59.7346C79.9581 64.4819 71.811 63.889 67.312 58.4103C62.813 52.9316 63.6657 44.6418 69.2166 39.8944C74.7675 35.1471 82.9146 35.74 87.4136 41.2187Z" fill="#E9EEF2"/>
    </g>
    <defs>
        <linearGradient id="paint0_linear_6009_11379" x1="47.5" y1="69" x2="-15.5" y2="106.5" gradientUnits="userSpaceOnUse">
            <stop stop-color="#E1E7ED"/>
            <stop offset="1" stop-color="#F4F6F9"/>
        </linearGradient>
        <linearGradient id="paint1_linear_6009_11379" x1="78" y1="20.5" x2="116.979" y2="0.958278" gradientUnits="userSpaceOnUse">
            <stop stop-color="#E4E7EA"/>
            <stop offset="1" stop-color="#F1F4F6"/>
        </linearGradient>
        <linearGradient id="paint2_linear_6009_11379" x1="60" y1="7" x2="60" y2="123" gradientUnits="userSpaceOnUse">
            <stop stop-color="#FDFEFF"/>
            <stop offset="1" stop-color="#FDFDFE"/>
        </linearGradient>
        <clipPath id="clip0_6009_11379">
            <rect width="120" height="100" fill="white"/>
        </clipPath>
    </defs>
</svg>
