<svg width="20" height="20" viewBox="0 0 20 20" fill="none" xmlns="http://www.w3.org/2000/svg">
    <path d="M19.6489 17.8751C18.2211 15.4067 16.0208 13.6367 13.4529 12.7976C14.7231 12.0415 15.7099 10.8893 16.2619 9.51804C16.8139 8.14678 16.9004 6.63224 16.5083 5.20701C16.1162 3.78178 15.2671 2.52467 14.0914 1.62873C12.9156 0.732786 11.4783 0.247559 10.0001 0.247559C8.52195 0.247559 7.08463 0.732786 5.90891 1.62873C4.73318 2.52467 3.88406 3.78178 3.49195 5.20701C3.09984 6.63224 3.18641 8.14678 3.73837 9.51804C4.29033 10.8893 5.27716 12.0415 6.54732 12.7976C3.97951 13.6357 1.77919 15.4057 0.351382 17.8751C0.299021 17.9605 0.264291 18.0555 0.24924 18.1545C0.234189 18.2535 0.239122 18.3545 0.263748 18.4516C0.288374 18.5487 0.332195 18.6399 0.392624 18.7197C0.453053 18.7996 0.528867 18.8666 0.615593 18.9167C0.702318 18.9667 0.798198 18.999 0.897577 19.0114C0.996955 19.0238 1.09782 19.0163 1.19421 18.9891C1.29061 18.9619 1.38059 18.9157 1.45884 18.8532C1.53709 18.7907 1.60203 18.7131 1.64982 18.6251C3.41607 15.5726 6.53794 13.7501 10.0001 13.7501C13.4623 13.7501 16.5842 15.5726 18.3504 18.6251C18.3982 18.7131 18.4632 18.7907 18.5414 18.8532C18.6197 18.9157 18.7097 18.9619 18.806 18.9891C18.9024 19.0163 19.0033 19.0238 19.1027 19.0114C19.2021 18.999 19.2979 18.9667 19.3847 18.9167C19.4714 18.8666 19.5472 18.7996 19.6076 18.7197C19.6681 18.6399 19.7119 18.5487 19.7365 18.4516C19.7611 18.3545 19.7661 18.2535 19.751 18.1545C19.736 18.0555 19.7012 17.9605 19.6489 17.8751ZM4.75013 7.00011C4.75013 5.96176 5.05804 4.94672 5.63492 4.08337C6.21179 3.22001 7.03173 2.5471 7.99104 2.14974C8.95036 1.75238 10.006 1.64841 11.0244 1.85099C12.0428 2.05356 12.9782 2.55357 13.7124 3.2878C14.4467 4.02202 14.9467 4.95748 15.1493 5.97589C15.3518 6.99429 15.2479 8.04989 14.8505 9.0092C14.4531 9.96851 13.7802 10.7884 12.9169 11.3653C12.0535 11.9422 11.0385 12.2501 10.0001 12.2501C8.6082 12.2486 7.27371 11.695 6.28947 10.7108C5.30522 9.72653 4.75162 8.39204 4.75013 7.00011Z" fill="#1C1C1E"/>
</svg>
