<svg width="24" height="24" viewBox="0 0 24 24" fill="none" xmlns="http://www.w3.org/2000/svg">
    <g clip-path="url(#clip0_5321_118573)">
        <path d="M13.4998 7.4999C13.4998 7.30099 13.5789 7.11022 13.7195 6.96957C13.8602 6.82892 14.0509 6.7499 14.2498 6.7499H23.2498C23.4488 6.7499 23.6395 6.82892 23.7802 6.96957C23.9208 7.11022 23.9998 7.30099 23.9998 7.4999C23.9998 7.69881 23.9208 7.88958 23.7802 8.03023C23.6395 8.17088 23.4488 8.2499 23.2498 8.2499H14.2498C14.0509 8.2499 13.8602 8.17088 13.7195 8.03023C13.5789 7.88958 13.4998 7.69881 13.4998 7.4999ZM23.2498 11.2499H14.2498C14.0509 11.2499 13.8602 11.3289 13.7195 11.4696C13.5789 11.6102 13.4998 11.801 13.4998 11.9999C13.4998 12.1988 13.5789 12.3896 13.7195 12.5302C13.8602 12.6709 14.0509 12.7499 14.2498 12.7499H23.2498C23.4488 12.7499 23.6395 12.6709 23.7802 12.5302C23.9208 12.3896 23.9998 12.1988 23.9998 11.9999C23.9998 11.801 23.9208 11.6102 23.7802 11.4696C23.6395 11.3289 23.4488 11.2499 23.2498 11.2499ZM23.2498 15.7499H16.4998C16.3009 15.7499 16.1102 15.8289 15.9695 15.9696C15.8289 16.1102 15.7498 16.301 15.7498 16.4999C15.7498 16.6988 15.8289 16.8896 15.9695 17.0302C16.1102 17.1709 16.3009 17.2499 16.4998 17.2499H23.2498C23.4488 17.2499 23.6395 17.1709 23.7802 17.0302C23.9208 16.8896 23.9998 16.6988 23.9998 16.4999C23.9998 16.301 23.9208 16.1102 23.7802 15.9696C23.6395 15.8289 23.4488 15.7499 23.2498 15.7499ZM14.2264 17.8124C14.2509 17.9078 14.2564 18.0071 14.2425 18.1047C14.2287 18.2022 14.1957 18.296 14.1456 18.3808C14.0954 18.4656 14.0291 18.5397 13.9503 18.5989C13.8715 18.658 13.7818 18.701 13.6864 18.7255C13.6253 18.742 13.5622 18.7502 13.4989 18.7499C13.3326 18.75 13.1709 18.6948 13.0394 18.5929C12.9079 18.4911 12.8139 18.3485 12.7723 18.1874C12.1948 15.943 9.92797 14.2499 7.4989 14.2499C5.06984 14.2499 2.80297 15.9421 2.22547 18.1874C2.17574 18.3801 2.0515 18.5451 1.88008 18.6462C1.70866 18.7473 1.5041 18.7762 1.3114 18.7265C1.11871 18.6767 0.953657 18.5525 0.852564 18.3811C0.75147 18.2097 0.722613 18.0051 0.772341 17.8124C1.2964 15.7771 2.81984 14.129 4.75297 13.3124C4.00862 12.7391 3.46239 11.9472 3.19089 11.0477C2.91938 10.1482 2.93622 9.18636 3.23904 8.29695C3.54186 7.40754 4.11547 6.63522 4.87942 6.08831C5.64338 5.54139 6.55936 5.24731 7.4989 5.24731C8.43845 5.24731 9.35443 5.54139 10.1184 6.08831C10.8823 6.63522 11.4559 7.40754 11.7588 8.29695C12.0616 9.18636 12.0784 10.1482 11.8069 11.0477C11.5354 11.9472 10.9892 12.7391 10.2448 13.3124C12.1789 14.129 13.7023 15.7771 14.2264 17.8124ZM7.49984 12.7499C8.09318 12.7499 8.6732 12.574 9.16655 12.2443C9.6599 11.9147 10.0444 11.4461 10.2715 10.8979C10.4985 10.3498 10.558 9.74657 10.4422 9.16463C10.3264 8.58269 10.0407 8.04814 9.62116 7.62858C9.2016 7.20902 8.66706 6.9233 8.08511 6.80754C7.50317 6.69179 6.89997 6.7512 6.35179 6.97826C5.80361 7.20532 5.33508 7.58984 5.00543 8.08319C4.67579 8.57654 4.49984 9.15656 4.49984 9.7499C4.49984 10.5455 4.81591 11.3086 5.37852 11.8712C5.94113 12.4338 6.70419 12.7499 7.49984 12.7499Z" fill="#1C1C1E"/>
    </g>
    <defs>
        <clipPath id="clip0_5321_118573">
            <rect width="24" height="24" fill="white"/>
        </clipPath>
    </defs>
</svg>
